# xmcd
#
# Track frame offsets:
#	150
#	16584
#	46041
#	65316
#	83499
#	97928
#	116235
#	125999
#	138686
#	148765
#
# Disc length: 2177 seconds
#
# Revision: 0
# Processed by: cddbd v1.5.2PL0 Copyright (c) Steve Scherf et al.
# Submitted via: EasyCDDAExtractor 8.2.3.1
#
DISCID=84087f0a
DTITLE=The Blind Boys Of Alabama - Revisited
DYEAR=2008
DGENRE=Blues
TTITLE0=Another Day's Journey
TTITLE1=Motherless Child
TTITLE2=Reach Out And Touch
TTITLE3=Waiting At the River
TTITLE4=Old Time Religion
TTITLE5=The Lord Will Make A Way
TTITLE6=Like A Shelter
TTITLE7=Nothing But The Blood
TTITLE8=O Happy Day
TTITLE9=Serving God
EXTD=
EXTT0=
EXTT1=
EXTT2=
EXTT3=
EXTT4=
EXTT5=
EXTT6=
EXTT7=
EXTT8=
EXTT9=
PLAYORDER=
